<svg xmlns="http://www.w3.org/2000/svg" width="18" height="20.582" viewBox="0 0 18 20.582">
  <path id="패스_8920" data-name="패스 8920" d="M878.5,601.251l-1.7-1.7v-4.926a7.013,7.013,0,0,0-7-7h-.006a7.013,7.013,0,0,0-7,7v1.188a1,1,0,0,0,2,0v-1.188a5.01,5.01,0,0,1,5-5h.006a5.01,5.01,0,0,1,5,5v5.34a1,1,0,0,0,.293.707l1.7,1.7v.581h-14v-.581l1.7-1.7a1,1,0,1,0-1.414-1.414l-1.992,1.993a1,1,0,0,0-.293.707v2a1,1,0,0,0,1,1h3.871a4.244,4.244,0,0,0,8.253,0h3.877a1,1,0,0,0,1-1v-2A1,1,0,0,0,878.5,601.251Zm-8.71,4.953a2.244,2.244,0,0,1-2.005-1.25h4.01A2.244,2.244,0,0,1,869.791,606.2Z" transform="translate(-860.795 -587.621)" fill="#767676"/>
</svg>
