<svg xmlns="http://www.w3.org/2000/svg" width="16" height="16" viewBox="0 0 16 16">
  <g id="그룹_23888" data-name="그룹 23888" transform="translate(23367 22097)">
    <rect id="Rectangle" width="16" height="16" rx="3" transform="translate(-23367 -22097)" fill="#ff6532"/>
    <path id="check" d="M11.577,5.012A.77.77,0,0,1,12.731,5a.945.945,0,0,1,.011,1.257L8.4,12.167a.771.771,0,0,1-1.175.024L4.345,9.056a.94.94,0,0,1-.234-.87A.855.855,0,0,1,4.7,7.545a.774.774,0,0,1,.8.255l2.279,2.48,3.779-5.243a.273.273,0,0,1,.022-.026Z" transform="translate(-23367.531 -22097.598)" fill="#fff" fill-rule="evenodd"/>
  </g>
</svg>
