<svg id="그룹_23525" data-name="그룹 23525" xmlns="http://www.w3.org/2000/svg" xmlns:xlink="http://www.w3.org/1999/xlink" width="40.076" height="40.076" viewBox="0 0 40.076 40.076">
  <defs>
    <clipPath id="clip-path">
      <rect id="사각형_26036" data-name="사각형 26036" width="40.076" height="40.076" fill="#f25757"/>
    </clipPath>
  </defs>
  <g id="그룹_23524" data-name="그룹 23524" clip-path="url(#clip-path)">
    <path id="패스_8787" data-name="패스 8787" d="M20.038,20.038a6.011,6.011,0,1,1,6.012-6.011,6.011,6.011,0,0,1-6.012,6.011m0-4.008a2,2,0,1,0-2-2,2,2,0,0,0,2,2m16.031,4.008a16.031,16.031,0,1,0-32.061,0A15.637,15.637,0,0,0,12.9,34.267a2,2,0,1,1-1.756,3.6A19.643,19.643,0,0,1,0,20.038,20.038,20.038,0,1,1,20.038,40.076a2,2,0,0,1-2-2V24.044a2,2,0,1,1,4.007,0v11.9A16.032,16.032,0,0,0,36.069,20.038" transform="translate(0 -0.001)" fill="#fff"/>
  </g>
</svg>
