<svg xmlns="http://www.w3.org/2000/svg" xmlns:xlink="http://www.w3.org/1999/xlink" width="191.068" height="200" viewBox="0 0 191.068 200">
  <defs>
    <linearGradient id="linear-gradient" y1="1.101" x2="1" gradientUnits="objectBoundingBox">
      <stop offset="0" stop-color="#ff3401"/>
      <stop offset="0.306" stop-color="#ff531f"/>
      <stop offset="1" stop-color="#ff6532"/>
    </linearGradient>
    <linearGradient id="linear-gradient-2" x1="0.056" y1="1.773" x2="1" y2="0.053" gradientUnits="objectBoundingBox">
      <stop offset="0" stop-color="#ff3401"/>
      <stop offset="0.753" stop-color="#ff531f"/>
      <stop offset="1" stop-color="#ff6532"/>
    </linearGradient>
    <linearGradient id="linear-gradient-4" x1="-0.136" y1="0.816" x2="0.885" y2="0.119" xlink:href="#linear-gradient-2"/>
  </defs>
  <g id="그룹_23886" data-name="그룹 23886" transform="translate(-184.002 -612)">
    <g id="그룹_20507" data-name="그룹 20507" transform="translate(184.002 612)">
      <g id="그룹_20501" data-name="그룹 20501" transform="translate(0 141.904)">
        <path id="패스_8268" data-name="패스 8268" d="M370.463,1480.752a1.981,1.981,0,0,1-1.98-1.96l-.088-8.878a1.98,1.98,0,1,1,3.959-.038l.053,5.333,11.1-6.874a1.98,1.98,0,0,1,2.111,3.35l-14.1,8.763A1.982,1.982,0,0,1,370.463,1480.752Z" transform="translate(-195.471 -1467.914)" fill="url(#linear-gradient)"/>
        <path id="패스_8269" data-name="패스 8269" d="M260.692,1501.331H230.411a1.388,1.388,0,0,0-1.386,1.387v1.056a1.388,1.388,0,0,0,1.386,1.386H243.26v9.428a1.39,1.39,0,0,0,1.387,1.387h1.85a1.39,1.39,0,0,0,1.387-1.387v-9.428h12.807a1.389,1.389,0,0,0,1.387-1.386v-1.056A1.39,1.39,0,0,0,260.692,1501.331Z" transform="translate(-229.025 -1459.869)" fill="#383838"/>
        <path id="패스_8270" data-name="패스 8270" d="M237.1,1499.811a9.6,9.6,0,0,0,3.107,1.983,11.548,11.548,0,0,0,8.112,0,9.577,9.577,0,0,0,3.106-1.983,8.972,8.972,0,0,0,2.008-2.91,8.711,8.711,0,0,0,0-6.928,8.981,8.981,0,0,0-2.008-2.908,9.588,9.588,0,0,0-3.106-1.983,11.566,11.566,0,0,0-8.112,0,9.606,9.606,0,0,0-3.107,1.983,8.995,8.995,0,0,0-2.005,2.908,8.711,8.711,0,0,0,0,6.928A8.985,8.985,0,0,0,237.1,1499.811Zm1.861-6.374a5.509,5.509,0,0,1,.36-1.973,5.175,5.175,0,0,1,1.04-1.684,5,5,0,0,1,1.664-1.173,6,6,0,0,1,4.478,0,4.971,4.971,0,0,1,1.661,1.173,5.169,5.169,0,0,1,1.042,1.684,5.6,5.6,0,0,1,0,3.948,5.2,5.2,0,0,1-1.042,1.684,4.927,4.927,0,0,1-1.661,1.17,5.986,5.986,0,0,1-4.478,0,4.952,4.952,0,0,1-1.663-1.17,5.174,5.174,0,0,1-1.041-1.684A5.512,5.512,0,0,1,238.962,1493.437Z" transform="translate(-227.736 -1463.958)" fill="#383838"/>
        <path id="패스_8271" data-name="패스 8271" d="M286.108,1484.026h-1.73a1.388,1.388,0,0,0-1.387,1.386v21.279H265.219a.109.109,0,0,1-.11-.109v-6.252a.109.109,0,0,1,.11-.109h10.353a1.389,1.389,0,0,0,1.387-1.387v-10.8a1.389,1.389,0,0,0-1.387-1.387H261.951a1.388,1.388,0,0,0-1.386,1.387v1.1a1.387,1.387,0,0,0,1.386,1.386h10.354a.11.11,0,0,1,.109.11v5.655a.109.109,0,0,1-.109.109H261.951a1.388,1.388,0,0,0-1.386,1.386v11.393a1.388,1.388,0,0,0,1.386,1.387h21.041v7.8a1.389,1.389,0,0,0,1.387,1.387h1.73a1.389,1.389,0,0,0,1.387-1.387v-32.945A1.388,1.388,0,0,0,286.108,1484.026Z" transform="translate(-221.432 -1464.036)" fill="#383838"/>
        <path id="패스_8272" data-name="패스 8272" d="M319.222,1500.917H306.374v-3.447h8.2a1.39,1.39,0,0,0,1.387-1.387v-.937a1.39,1.39,0,0,0-1.387-1.387h-17.46v-5h17.063a1.389,1.389,0,0,0,1.387-1.386v-.938a1.388,1.388,0,0,0-1.387-1.386H293.951a1.388,1.388,0,0,0-1.387,1.386v9.646a1.39,1.39,0,0,0,1.387,1.387h7.838v3.447H288.941a1.389,1.389,0,0,0-1.387,1.387v1.015a1.389,1.389,0,0,0,1.387,1.387h30.281a1.388,1.388,0,0,0,1.386-1.387V1502.3A1.388,1.388,0,0,0,319.222,1500.917Z" transform="translate(-214.934 -1463.789)" fill="#383838"/>
        <path id="패스_8273" data-name="패스 8273" d="M309.734,1504.363a9,9,0,0,0-3.011-1.639,12.642,12.642,0,0,0-4-.592,12.489,12.489,0,0,0-3.979.592,9.012,9.012,0,0,0-2.991,1.639,7.219,7.219,0,0,0-1.9,2.475,7.658,7.658,0,0,0,0,6.226,7.211,7.211,0,0,0,1.9,2.476,9.029,9.029,0,0,0,2.991,1.639,12.482,12.482,0,0,0,3.979.592,12.631,12.631,0,0,0,4-.592,9.019,9.019,0,0,0,3.011-1.639,7.241,7.241,0,0,0,1.9-2.476,7.621,7.621,0,0,0,0-6.205A7.19,7.19,0,0,0,309.734,1504.363Zm-1.986,5.588a3.7,3.7,0,0,1-1.323,2.943,5.466,5.466,0,0,1-3.7,1.166,5.383,5.383,0,0,1-3.7-1.164,4.02,4.02,0,0,1,0-5.891,5.383,5.383,0,0,1,3.7-1.164,5.465,5.465,0,0,1,3.7,1.167A3.7,3.7,0,0,1,307.748,1509.951Z" transform="translate(-213.576 -1459.676)" fill="#383838"/>
        <path id="패스_8274" data-name="패스 8274" d="M333.1,1504.978h-9.429v-17.739a1.388,1.388,0,0,0-1.387-1.386h-1.771a1.388,1.388,0,0,0-1.387,1.386v20.3a1.388,1.388,0,0,0,1.387,1.386H333.1a1.387,1.387,0,0,0,1.386-1.386v-1.176A1.387,1.387,0,0,0,333.1,1504.978Z" transform="translate(-207.332 -1463.596)" fill="#383838"/>
        <path id="패스_8275" data-name="패스 8275" d="M337.651,1484.186h-1.532a1.388,1.388,0,0,0-1.387,1.386v8.952h-6.685a1.39,1.39,0,0,0-1.387,1.387v1.135a1.388,1.388,0,0,0,1.387,1.386h6.685v19.29a1.389,1.389,0,0,0,1.387,1.387h1.532a1.389,1.389,0,0,0,1.387-1.387v-32.15A1.388,1.388,0,0,0,337.651,1484.186Z" transform="translate(-205.519 -1463.997)" fill="#383838"/>
        <rect id="사각형_24644" data-name="사각형 24644" width="4.386" height="35.718" rx="2.193" transform="translate(136.171 19.99)" fill="#383838"/>
        <g id="그룹_20500" data-name="그룹 20500" transform="translate(148.116 19.991)">
          <path id="패스_8276" data-name="패스 8276" d="M376.052,1484.026H374.36a1.388,1.388,0,0,0-1.386,1.386v13.207h-6.51v-9.134h2.511a1.387,1.387,0,0,0,1.386-1.386v-1.016a1.388,1.388,0,0,0-1.386-1.386H350.3a1.387,1.387,0,0,0-1.386,1.386v1.016a1.387,1.387,0,0,0,1.386,1.386h2.51v9.134h-3.026A1.388,1.388,0,0,0,348.4,1500v1.016a1.388,1.388,0,0,0,1.387,1.386h23.186v.841a1.388,1.388,0,0,0,1.386,1.386h1.692a1.388,1.388,0,0,0,1.387-1.386v-17.836A1.388,1.388,0,0,0,376.052,1484.026ZM362,1489.484v9.134h-4.72v-9.134Z" transform="translate(-348.401 -1484.026)" fill="url(#linear-gradient-2)"/>
          <path id="패스_8277" data-name="패스 8277" d="M374.9,1502.293H354.6a1.39,1.39,0,0,0-1.387,1.387v1.015a1.389,1.389,0,0,0,1.387,1.387h17.1v9.07a1.389,1.389,0,0,0,1.387,1.387h1.81a1.389,1.389,0,0,0,1.387-1.387V1503.68A1.39,1.39,0,0,0,374.9,1502.293Z" transform="translate(-347.244 -1479.628)" fill="url(#linear-gradient-2)"/>
        </g>
      </g>
      <g id="그룹_20502" data-name="그룹 20502" transform="translate(46.589)">
        <path id="패스_8278" data-name="패스 8278" d="M306.23,1463.889v9.317a10.767,10.767,0,0,1-5.384,9.325l-8.184,4.725c-.366.211-.733.433-1.1.656-1.829,1.1-3.554,2.14-5.348,2.14a4.71,4.71,0,0,1-2.4-.682l-11.848-6.839a10.77,10.77,0,0,1-5.385-9.328v-31.066a.99.99,0,0,1,1.484-.856l37.677,21.752A.986.986,0,0,1,306.23,1463.889Zm53.351-80.939a.836.836,0,0,0-.081-.221l-.042-.306c0-.04-.032-.157-.042-.2a10.373,10.373,0,0,0-.409-1.253l-.051-.129a11.593,11.593,0,0,0-.552-1.131,9.707,9.707,0,0,0-.542-.84l-.16-.242a10.185,10.185,0,0,0-.679-.823l-.122-.14a11.694,11.694,0,0,0-.9-.856,10.441,10.441,0,0,0-1-.75l-.277-.193c-.107-.075-.213-.15-.329-.216l-35.836-20.691a10.959,10.959,0,0,0-10.771,0l-8.579,4.953a.989.989,0,0,0,0,1.713l34.456,19.9a16.076,16.076,0,0,1-3.884,29.465,16.182,16.182,0,0,1-12.209-1.592l-8.01-4.624-10.986-6.342a1.865,1.865,0,0,0-1.87,0l-10.986,6.342-18.22,10.519a1.869,1.869,0,0,0-.936,1.62v9.446a10.691,10.691,0,0,0,.1,1.385.989.989,0,0,0,1.475.735L284.6,1419a3.52,3.52,0,0,1,3.519,6.1l-15.785,9.09a.99.99,0,0,0,0,1.715l5.877,3.393a1.872,1.872,0,0,0,1.87,0L300,1427.8a3.514,3.514,0,0,1,5.242,3.083,3.89,3.89,0,0,1-2.008,3.18l-15.562,8.984a.989.989,0,0,0,0,1.713l6.117,3.531a1.874,1.874,0,0,0,1.871,0l20.062-11.585a3.526,3.526,0,0,1,5.269,2.694,3.625,3.625,0,0,1-1.867,3.474l-15.873,9.166a.989.989,0,0,0,0,1.714l4.544,2.623a10.76,10.76,0,0,0,10.77,0l35.838-20.689a11.2,11.2,0,0,0,1.326-.921l.078-.068a10.951,10.951,0,0,0,1.218-1.171,10.838,10.838,0,0,0,2.761-7.167v-41.38A10.39,10.39,0,0,0,359.581,1382.95Zm-92.512,23.893a.987.987,0,0,0,.989,0l20.868-12.049a.9.9,0,0,0,.081-.052l7.7-4.447a1.871,1.871,0,0,1,1.87,0l22.522,13a9.051,9.051,0,0,0,9.051-15.677l-26.388-15.237-11.952-6.9a2.245,2.245,0,0,0-2.245,0l-11.951,6.9-5.663,3.268c-.108.062-.21.133-.355.236l-.231.16a11.511,11.511,0,0,0-.963.717l-.076.071a10.732,10.732,0,0,0-.895.861l-.078.088a10.314,10.314,0,0,0-.744.916l-.385.569a.98.98,0,0,0-.144.362l-.089.091a1.068,1.068,0,0,0-.166.226c-.154.29-.293.583-.421.89l-.046.115a10.415,10.415,0,0,0-.455,1.422l-.086.42a1.072,1.072,0,0,0-.043.155,10.615,10.615,0,0,0-.2,2.025v21.01A.987.987,0,0,0,267.069,1406.843Z" transform="translate(-266.574 -1353.545)" fill="url(#linear-gradient-4)"/>
      </g>
    </g>
  </g>
</svg>
