<svg xmlns="http://www.w3.org/2000/svg" width="40" height="40" viewBox="0 0 40 40">
  <g id="그룹_23885" data-name="그룹 23885" transform="translate(-5336.293 -12)">
    <g id="그룹_22815" data-name="그룹 22815" transform="translate(4132.126 -1108)">
      <path id="패스_8649" data-name="패스 8649" d="M1244.167,1140a20,20,0,1,0-31.511,16.357,13.207,13.207,0,0,1,23.021,0A19.975,19.975,0,0,0,1244.167,1140Zm-20,7.434A7.434,7.434,0,1,1,1231.6,1140,7.434,7.434,0,0,1,1224.167,1147.434Z" fill="#ff8257"/>
      <circle id="타원_269" data-name="타원 269" cx="7.434" cy="7.434" r="7.434" transform="translate(1216.733 1132.566)" fill="#fff"/>
      <path id="패스_8650" data-name="패스 8650" d="M1368.7,1654a13.2,13.2,0,0,0-11.511,6.732,20.008,20.008,0,0,0,23.021,0A13.2,13.2,0,0,0,1368.7,1654Z" transform="translate(-144.533 -504.374)" fill="#fff"/>
    </g>
  </g>
</svg>
