<svg xmlns="http://www.w3.org/2000/svg" width="56" height="56" viewBox="0 0 56 56">
  <g id="그룹_23887" data-name="그룹 23887" transform="translate(2962 -9608)">
    <rect id="사각형_26240" data-name="사각형 26240" width="56" height="56" transform="translate(-2962 9608)" fill="none" opacity="0.2"/>
    <path id="패스_8921" data-name="패스 8921" d="M.286,10.991A22.97,22.97,0,0,1,20.038,0,22.968,22.968,0,0,1,39.789,10.991a2,2,0,0,1,0,2.064A22.968,22.968,0,0,1,20.038,24.046,22.97,22.97,0,0,1,.286,13.055a2,2,0,0,1,0-2.064m19.752,9.047a19.025,19.025,0,0,0,15.647-8.015A19.025,19.025,0,0,0,20.038,4.008,19.025,19.025,0,0,0,4.39,12.023a19.025,19.025,0,0,0,15.648,8.015m-6.012-8.015a2,2,0,0,1,4.008,0,2,2,0,1,0,2-2,2,2,0,0,1,0-4.008,6.012,6.012,0,1,1-6.012,6.012" transform="translate(-2954 9624)" fill="#767676"/>
  </g>
</svg>
